<svg xmlns="http://www.w3.org/2000/svg" width="900" height="440" font-family="system-ui, -apple-system, sans-serif">
<defs><pattern id="grid" width="40" height="40" patternUnits="userSpaceOnUse"><path d="M 40 0 L 0 0 0 40" fill="none" stroke="#1E293B" stroke-width="0.5"/></pattern><marker id="arrow-solid" markerWidth="8" markerHeight="6" refX="4" refY="3" orient="auto" markerUnits="userSpaceOnUse"><polygon points="0 0, 8 3, 0 6" fill="#34D399"/></marker><marker id="arrow-dashed" markerWidth="8" markerHeight="6" refX="4" refY="3" orient="auto" markerUnits="userSpaceOnUse"><polygon points="0 0, 8 3, 0 6" fill="#6B7280"/></marker><marker id="arrow-open" markerWidth="8" markerHeight="6" refX="4" refY="3" orient="auto" markerUnits="userSpaceOnUse"><polygon points="0 0, 8 3, 0 6" fill="none" stroke="#6B7280" stroke-width="1"/></marker><marker id="arrow-dot" markerWidth="8" markerHeight="8" refX="4" refY="4" orient="auto" markerUnits="userSpaceOnUse"><circle cx="4" cy="4" r="3" fill="#34D399"/></marker></defs>
<rect width="900" height="440" fill="#020617"/>
<g class="title-block"><rect x="50" y="30" width="800" height="52" rx="6" fill="#0F172A" stroke="#1E293B" stroke-width="1"/><text x="66" y="54" font-size="16" fill="#E2E8F0" font-family="system-ui, -apple-system, sans-serif" font-weight="700">Generated Blueprint — 泳道流程</text><text x="66" y="72" font-size="11" fill="#94A3B8" font-family="'JetBrains Mono', 'SF Mono', monospace">行业：retail</text></g>
<rect x="50" y="102" width="800" height="166" rx="6" fill="#0E2A3D" stroke="#22D3EE" stroke-width="0.9" fill-opacity="0.84"/>
<text x="64" y="125" font-size="12" fill="#22D3EE" font-weight="600">门店导购 <tspan font-size="10" fill="#94A3B8">(2步)</tspan></text>
<rect x="798" y="110" width="38" height="18" rx="3" fill="#0E2A3D" stroke="#22D3EE" stroke-width="0.8" fill-opacity="0.95"/><text x="817" y="123" text-anchor="middle" font-size="8" fill="#E2E8F0">会员运营</text>
<rect x="64" y="154" width="220" height="42" rx="5" fill="#0F172A" stroke="#22D3EE" stroke-width="1.5"/><rect x="66" y="156" width="22" height="38" rx="4" fill="#22D3EE" opacity="0.12"/><text x="77" y="180.0" text-anchor="middle" font-size="12" fill="#22D3EE" font-weight="700">1</text>
<text x="96" y="173" font-size="11" fill="#E2E8F0" font-weight="500">
<tspan x="96" dy="0">会员注册</tspan>
</text>
<rect x="308" y="164" width="38" height="18" rx="3" fill="#0E2A3D" stroke="#22D3EE" stroke-width="0.8" fill-opacity="0.95"/><text x="327" y="177" text-anchor="middle" font-size="8" fill="#E2E8F0">会员运营</text>
<rect x="64" y="210" width="220" height="42" rx="5" fill="#0F172A" stroke="#22D3EE" stroke-width="1.5"/><rect x="66" y="212" width="22" height="38" rx="4" fill="#22D3EE" opacity="0.12"/><text x="77" y="236.0" text-anchor="middle" font-size="12" fill="#22D3EE" font-weight="700">2</text>
<text x="96" y="229" font-size="11" fill="#E2E8F0" font-weight="500">
<tspan x="96" dy="0">积分累计</tspan>
</text>
<rect x="308" y="220" width="38" height="18" rx="3" fill="#0E2A3D" stroke="#22D3EE" stroke-width="0.8" fill-opacity="0.95"/><text x="327" y="233" text-anchor="middle" font-size="8" fill="#E2E8F0">会员运营</text>
<rect x="50" y="284" width="800" height="110" rx="6" fill="#0E2E1F" stroke="#34D399" stroke-width="0.9" fill-opacity="0.84"/>
<text x="64" y="307" font-size="12" fill="#34D399" font-weight="600">客服 <tspan font-size="10" fill="#94A3B8">(1步)</tspan></text>
<rect x="798" y="292" width="38" height="18" rx="3" fill="#0E2E1F" stroke="#34D399" stroke-width="0.8" fill-opacity="0.95"/><text x="817" y="305" text-anchor="middle" font-size="8" fill="#E2E8F0">订单管理</text>
<rect x="64" y="336" width="220" height="42" rx="5" fill="#0F172A" stroke="#34D399" stroke-width="1.5"/><rect x="66" y="338" width="22" height="38" rx="4" fill="#34D399" opacity="0.12"/><text x="77" y="362.0" text-anchor="middle" font-size="12" fill="#34D399" font-weight="700">1</text>
<text x="96" y="355" font-size="11" fill="#E2E8F0" font-weight="500">
<tspan x="96" dy="0">售后跟进</tspan>
</text>
<rect x="308" y="346" width="38" height="18" rx="3" fill="#0E2E1F" stroke="#34D399" stroke-width="0.8" fill-opacity="0.95"/><text x="327" y="359" text-anchor="middle" font-size="8" fill="#E2E8F0">订单管理</text>
</svg>